<svg xmlns="http://www.w3.org/2000/svg" version="1.1" xmlns:xlink="http://www.w3.org/1999/xlink" xmlns:svgjs="http://svgjs.dev/svgjs" width="1000" height="1000" viewBox="0 0 1000 1000"><g transform="matrix(1,0,0,1,-0.06231169986705254,0.9313624084642242)"><svg viewBox="0 0 250 250" data-background-color="#ffffff" preserveAspectRatio="xMidYMid meet" height="1000" width="1000" xmlns="http://www.w3.org/2000/svg" xmlns:xlink="http://www.w3.org/1999/xlink"><g id="tight-bounds" transform="matrix(1,0,0,1,0.015578447749362567,-0.23284060211605606)"><svg viewBox="0 0 249.9688357855448 247.2" height="247.2" width="249.9688357855448"><g><svg viewBox="0 0 320.99303903724933 317.4374877598108" height="247.2" width="249.9688357855448"><g><svg viewBox="0 0 320.99303903724933 317.4374877598108" height="317.4374877598108" width="320.99303903724933"><g><svg viewBox="0 0 320.99303903724933 317.4374877598108" height="317.4374877598108" width="320.99303903724933"><g><rect width="61.30967045611462" height="22.154981908537728" y="299.4760723451885" fill="#6b7280" data-fill-palette-color="tertiary"></rect><rect width="61.30967045611462" height="22.154981908537728" y="299.4760723451885" x="259.6833685811347" fill="#6b7280" data-fill-palette-color="tertiary"></rect></g><g><svg viewBox="0 0 320.99303903724933 245.672304" height="245.672304" width="320.99303903724933"><g transform="matrix(1,0,0,1,0,0)"><svg width="320.99303903724933" viewBox="4.400000095367432 -34.900001525878906 45.599998474121094 34.900001525878906" height="245.672304" data-palette-color="#6b7280"><path d="M21.05 0L4.4 0 4.4-34.9 7.3-34.9 7.3-2.55 21.05-2.55 21.05 0ZM50 0L47.05 0 43.65-10.95 30.4-10.95 27.05 0 24.1 0 35.15-34.9 38.95-34.9 50 0ZM43-13.3L38.8-26.75 37.2-32.35 36.85-32.35 35.2-26.75 31.1-13.3 43-13.3Z" opacity="1" transform="matrix(1,0,0,1,0,0)" fill="#6b7280" class="undefined-text-0" data-fill-palette-color="primary" id="text-0"></path></svg></g></svg></g><g transform="matrix(1,0,0,1,61.30967045611462,303.669638839104)"><svg viewBox="0 0 198.3736981250201 13.767848920706799" height="13.767848920706799" width="198.3736981250201"><g transform="matrix(1,0,0,1,8,0)"><svg width="182.3736981250201" viewBox="2.549999952316284 -36.70000076293945 634.4199829101562 47.900001525878906" height="13.767848920706799" data-palette-color="#000000"><path d="M25.8 11.2L25.8 11.2Q24.2 11.2 19.48 8.47 14.75 5.75 12.9 5.75L12.9 5.75Q9.8 9.15 8.4 9.15L8.4 9.15Q7.9 9.15 6.58 7.55 5.25 5.95 5.25 5.1 5.25 4.25 7 2.98 8.75 1.7 11.08 1.7 13.4 1.7 18.75 3.23 24.1 4.75 27.1 4.75L27.1 4.75Q28 4.75 28.38 4.38 28.75 4 29.13 3.4 29.5 2.8 29.83 2.27 30.15 1.75 30.2 1.75L30.2 1.75 31.8 2.25Q31.8 11.2 25.8 11.2ZM28.93-31.1Q30.25-29.1 30.9-26.88 31.55-24.65 31.55-21.95 31.55-19.25 30.95-16.2 30.35-13.15 28.95-10.1 27.55-7.05 25.55-4.7 23.55-2.35 20.5-0.88 17.45 0.6 13.8 0.6L13.8 0.6Q8.45 0.6 5.5-3.23 2.55-7.05 2.55-13.08 2.55-19.1 4.67-24.13 6.8-29.15 10.78-32.33 14.75-35.5 19.6-35.5L19.6-35.5Q22.8-35.5 25.2-34.3 27.6-33.1 28.93-31.1ZM15.33-2.8Q17.65-2.8 19.28-4.85 20.9-6.9 21.75-10.2L21.75-10.2Q23.45-16.7 23.45-23.55L23.45-23.55Q23.45-32.1 18.85-32.1L18.85-32.1Q16.2-32.1 14.3-29L14.3-29Q10.65-23.1 10.65-12.8L10.65-12.8Q10.65-7.15 11.3-5.8L11.3-5.8Q11.6-5.05 12.1-4.25L12.1-4.25Q13-2.8 15.33-2.8ZM33.7-3.78Q33.7-5.9 35-11.08 36.3-16.25 36.3-17.43 36.3-18.6 34.5-20.55L34.5-20.55 34.55-21.2Q37.95-21.9 43.5-21.9L43.5-21.9Q43.75-21.25 43.75-19.55 43.75-17.85 42.35-12.3 40.95-6.75 40.95-5.4 40.95-4.05 41.95-4.05L41.95-4.05Q43.4-4.05 45.3-5.1L45.3-5.1Q45.5-6.3 46.3-9.7L46.3-9.7Q48.1-17.7 48.1-21.15L48.1-21.15Q49.85-21.85 54.4-21.85L54.4-21.85 55.35-21.85Q55.35-19.5 53.95-12.68 52.55-5.85 52.55-4.67 52.55-3.5 53.05-3.5L53.05-3.5Q53.35-3.5 55.9-4.7L55.9-4.7 56.85-3.1Q52.4 0.6 49.05 0.6L49.05 0.6Q47.45 0.6 46.32-0.3 45.2-1.2 45.05-2.65L45.05-2.65Q41 0.65 37.7 0.65L37.7 0.65Q35.95 0.65 34.82-0.5 33.7-1.65 33.7-3.78ZM73.15-20.7L73.15-20.7Q73.25-20.8 73.7-22L73.7-22Q76.05-22 80-20.6L80-20.6Q78.75-16.45 78-11.93 77.25-7.4 77.25-5.48 77.25-3.55 77.65-3.55L77.65-3.55Q77.95-3.55 79.84-4.5L79.84-4.5 80.45-4.8 81.34-3.05Q80.9-2.65 80.17-2.05 79.45-1.45 77.45-0.43 75.45 0.6 73.84 0.6L73.84 0.6Q70.75 0.6 70.25-2.2L70.25-2.2Q67.05 0.6 64.47 0.6 61.9 0.6 60.12-1.4 58.35-3.4 58.35-7.7L58.35-7.7Q58.35-14.4 61.1-18.28 63.85-22.15 67.75-22.15L67.75-22.15Q70.55-22.15 73.15-20.7ZM67.45-3.65L67.45-3.65Q68.65-3.65 70.15-4.6L70.15-4.6Q70.5-11.65 72.5-18.55L72.5-18.55Q71-19.2 69.95-19.2L69.95-19.2Q68.15-19.2 66.87-15.68 65.59-12.15 65.59-7.9 65.59-3.65 67.45-3.65ZM86.12 0.6Q84.39 0.6 83.27-0.55 82.14-1.7 82.14-3.78 82.14-5.85 84.62-17.03 87.09-28.2 87.09-33.15L87.09-33.15 86.79-35.35Q90.69-36.7 94.09-36.7L94.09-36.7Q94.59-36 94.59-34.25L94.59-34.25Q94.59-30.25 92.07-18.78 89.54-7.3 89.54-5.43 89.54-3.55 89.99-3.55L89.99-3.55 93.49-4.8 94.39-3.05Q92.69-1.7 90.27-0.55 87.84 0.6 86.12 0.6ZM105.89-19.05Q105.89-16.95 104.54-11.83 103.19-6.7 103.19-5.13 103.19-3.55 103.64-3.55L103.64-3.55Q103.94-3.55 105.94-4.5L105.94-4.5 106.54-4.8 107.39-3.05Q106.94-2.65 106.19-2.05 105.44-1.45 103.39-0.43 101.34 0.6 99.59 0.6 97.84 0.6 96.84-0.48 95.84-1.55 95.84-3.38 95.84-5.2 97.09-9.88 98.34-14.55 98.34-15.95L98.34-15.95Q98.34-18.05 97.04-19.9L97.04-19.9 96.59-20.5 96.64-21.15Q99.29-21.9 105.24-21.9L105.24-21.9Q105.89-21.15 105.89-19.05ZM100.19-27.38Q99.19-28.35 99.19-30 99.19-31.65 100.57-32.9 101.94-34.15 103.74-34.15 105.54-34.15 106.54-33.15 107.54-32.15 107.54-30.53 107.54-28.9 106.12-27.65 104.69-26.4 102.94-26.4 101.19-26.4 100.19-27.38ZM119.94-21.55L124.79-21.55Q124.69-20.3 123.94-18.65L123.94-18.65Q122.04-18.85 120.34-18.85L120.34-18.85 119.44-18.85Q117.14-7.7 117.14-4.95L117.14-4.95Q117.14-3.5 117.76-3.5 118.39-3.5 121.09-4.75L121.09-4.75 121.99-3.1Q117.54 0.6 113.74 0.6L113.74 0.6Q111.99 0.6 110.86-0.5 109.74-1.6 109.74-3.43 109.74-5.25 110.16-7.55 110.59-9.85 111.34-13.18 112.09-16.5 112.44-18.55L112.44-18.55Q110.59-18.4 109.69-18.25L109.69-18.25Q109.59-18.85 109.59-19.88 109.59-20.9 109.74-21.55L109.74-21.55 112.89-21.55Q113.29-24.25 113.29-26.65L113.29-26.65 113.24-28.2 113.24-28.35Q117.14-29.7 120.59-29.7L120.59-29.7Q120.79-28.7 120.79-27.2 120.79-25.7 119.94-21.55L119.94-21.55ZM130.71 5.4Q129.04 6.4 129.04 7.35 129.04 8.3 130.11 8.3 131.19 8.3 132.54 7.28 133.89 6.25 134.79 3.95L134.79 3.95Q132.39 4.4 130.71 5.4ZM128.29 0.2L128.29 0.2Q124.09 0.2 124.09-4.4L124.09-4.4Q124.09-5.5 125.09-10.75 126.09-16 126.09-19.5L126.09-19.5Q126.09-20.25 125.89-20.9L125.89-20.9Q128.59-21.95 133.29-21.95L133.29-21.95Q133.54-21.25 133.54-19.55 133.54-17.85 132.44-12.5 131.34-7.15 131.34-5.6 131.34-4.05 132.64-4.05L132.64-4.05Q134.19-4.05 136.39-5.6L136.39-5.6Q136.64-8.55 138.39-21.15L138.39-21.15Q140.14-21.85 144.69-21.85L144.69-21.85 145.64-21.85Q144.69-18.1 143.79-11.05 142.89-4 142.34-1.25L142.34-1.25Q141.29 4.25 138.46 7.73 135.64 11.2 131.09 11.2L131.09 11.2Q129.29 11.2 127.81 10.25 126.34 9.3 126.34 7.8L126.34 7.8Q126.34 5.8 128.79 4.15 131.24 2.5 135.39 1.6L135.39 1.6Q135.84-0.6 136.09-2.65L136.09-2.65Q132.04 0.2 128.29 0.2ZM163.73 0.6L163.73 0.6Q160.28 0.6 158.33-1.83 156.38-4.25 156.38-8.6L156.38-8.6Q156.38-14.15 159.36-18.15 162.33-22.15 167.58-22.15L167.58-22.15 169.38-22.05Q170.23-22.5 171.28-22.5L171.28-22.5Q175.23-22.5 175.23-15.05L175.23-15.05Q177.28-15.15 179.38-15.6L179.38-15.6 180.18-15.8 180.48-13.85Q178.83-13.15 176.03-12.6L176.03-12.6 175.03-12.4Q174.08-7.15 171.18-3.28 168.28 0.6 163.73 0.6ZM166.43-3.7L166.43-3.7Q168.53-3.7 170.21-6.4 171.88-9.1 172.53-12.1L172.53-12.1Q167.18-12.1 167.18-16.1L167.18-16.1Q167.18-17.7 167.83-19.1L167.83-19.1 168.08-19.6Q167.88-19.7 167.58-19.7 167.28-19.7 167.13-19.6L167.13-19.6Q165.88-18.8 164.78-15.85 163.68-12.9 163.68-9.1L163.68-9.1Q163.68-3.7 166.43-3.7ZM177.78 0.15L177.78 0.15 176.83 0.15Q176.83-2.2 178.25-8.85 179.68-15.5 179.68-16.4L179.68-16.4Q179.68-18.05 178.28-19.9L178.28-19.9 177.83-20.5 177.88-21.15Q180.58-21.9 186.53-21.9L186.53-21.9Q187.18-21.05 187.23-18.8L187.23-18.8Q191.58-22.15 194.58-22.15L194.58-22.15Q196.38-22.15 197.45-20.9 198.53-19.65 198.53-17.78 198.53-15.9 197.38-11.3 196.23-6.7 196.23-5.13 196.23-3.55 196.63-3.55L196.63-3.55Q196.93-3.55 198.73-4.5L198.73-4.5 199.33-4.8 200.23-3.05Q199.78-2.65 199.03-2.05 198.28-1.45 196.25-0.43 194.23 0.6 192.63 0.6L192.63 0.6Q188.98 0.6 188.98-3.55L188.98-3.55Q188.98-5.3 190.1-10 191.23-14.7 191.23-16.05 191.23-17.4 190.38-17.4L190.38-17.4Q188.93-17.4 186.83-16.15L186.83-16.15Q186.68-15.3 185.83-11.65L185.83-11.65Q184.08-3.8 184.08-0.55L184.08-0.55Q182.33 0.15 177.78 0.15ZM231.92-9.8L231.92-9.8Q231.92-5 228.27-2.2 224.62 0.6 219.42 0.6L219.42 0.6Q215.92 0.6 213.65-1.18 211.37-2.95 211.12-4.2L211.12-4.2Q211.67-5.85 213.47-7.9 215.27-9.95 216.72-10.4L216.72-10.4Q219.27-8.75 221.47-3.05L221.47-3.05Q224.72-3.15 224.72-6.6L224.72-6.6Q224.72-8.5 223.2-11.28 221.67-14.05 219.87-16.48 218.07-18.9 216.55-21.93 215.02-24.95 215.02-27.3L215.02-27.3Q215.02-31.1 218.1-33.3 221.17-35.5 225.02-35.5 228.87-35.5 231-33.85 233.12-32.2 233.12-30.1 233.12-28 231.52-25.8 229.92-23.6 228.32-22.3L228.32-22.3 226.72-21Q227.32-20.2 228.17-18.95 229.02-17.7 230.47-14.7 231.92-11.7 231.92-9.8ZM228.1-26.2Q228.77-26.85 229.32-27.78 229.87-28.7 229.87-29.73 229.87-30.75 228.67-31.45 227.47-32.15 225.8-32.15 224.12-32.15 223-31.38 221.87-30.6 221.87-29.53 221.87-28.45 222.6-27.03 223.32-25.6 224.02-24.65L224.02-24.65 224.77-23.7Q225.27-23.95 226.35-24.75 227.42-25.55 228.1-26.2ZM241.97 0.6L241.97 0.6Q238.52 0.6 236.57-1.83 234.62-4.25 234.62-8.6L234.62-8.6Q234.62-14.15 237.6-18.15 240.57-22.15 245.82-22.15L245.82-22.15 247.62-22.05Q248.47-22.5 249.52-22.5L249.52-22.5Q253.47-22.5 253.47-15.05L253.47-15.05Q255.52-15.15 257.62-15.6L257.62-15.6 258.42-15.8 258.72-13.85Q257.07-13.15 254.27-12.6L254.27-12.6 253.27-12.4Q252.32-7.15 249.42-3.28 246.52 0.6 241.97 0.6ZM244.67-3.7L244.67-3.7Q246.77-3.7 248.45-6.4 250.12-9.1 250.77-12.1L250.77-12.1Q245.42-12.1 245.42-16.1L245.42-16.1Q245.42-17.7 246.07-19.1L246.07-19.1 246.32-19.6Q246.12-19.7 245.82-19.7 245.52-19.7 245.37-19.6L245.37-19.6Q244.12-18.8 243.02-15.85 241.92-12.9 241.92-9.1L241.92-9.1Q241.92-3.7 244.67-3.7ZM265.37-21.55L270.02-21.55Q269.92-20.45 269.12-18.65L269.12-18.65Q267.22-18.85 265.37-18.85L265.37-18.85 265.17-18.85Q264.12-6.5 263.22-0.6 262.32 5.3 260.87 7.65L260.87 7.65Q259.07 7.6 257.14 7.18 255.22 6.75 254.52 6.3L254.52 6.3Q255.72 2.6 256.94-4.85 258.17-12.3 258.52-18.6L258.52-18.6Q257.12-18.5 255.42-18.25L255.42-18.25Q255.27-18.9 255.27-19.58 255.27-20.25 255.47-21.55L255.47-21.55 258.67-21.55Q258.77-25.9 259.12-28.15L259.12-28.15Q259.72-32.15 261.89-34.43 264.07-36.7 267.52-36.7L267.52-36.7Q269.72-36.7 270.99-35.73 272.27-34.75 272.27-32.65 272.27-30.55 270.37-27.23 268.47-23.9 265.37-21.55L265.37-21.55ZM265.47-24.7Q267.42-26.35 268.52-28.35 269.62-30.35 269.62-31.98 269.62-33.6 268.57-33.6L268.57-33.6Q266.37-33.6 265.77-28.55L265.77-28.55Q265.57-26.85 265.47-24.7L265.47-24.7ZM281.01-21.55L285.86-21.55Q285.76-20.3 285.01-18.65L285.01-18.65Q283.11-18.85 281.41-18.85L281.41-18.85 280.51-18.85Q278.21-7.7 278.21-4.95L278.21-4.95Q278.21-3.5 278.84-3.5 279.46-3.5 282.16-4.75L282.16-4.75 283.06-3.1Q278.61 0.6 274.81 0.6L274.81 0.6Q273.06 0.6 271.94-0.5 270.81-1.6 270.81-3.43 270.81-5.25 271.24-7.55 271.66-9.85 272.41-13.18 273.16-16.5 273.51-18.55L273.51-18.55Q271.66-18.4 270.76-18.25L270.76-18.25Q270.66-18.85 270.66-19.88 270.66-20.9 270.81-21.55L270.81-21.55 273.96-21.55Q274.36-24.25 274.36-26.65L274.36-26.65 274.31-28.2 274.31-28.35Q278.21-29.7 281.66-29.7L281.66-29.7Q281.86-28.7 281.86-27.2 281.86-25.7 281.01-21.55L281.01-21.55ZM287.81-4.1L287.81-4.1 288.36-17.15Q288.36-18.85 286.56-20.65L286.56-20.65 286.66-21.25Q287.01-21.35 287.34-21.43 287.66-21.5 288.09-21.6 288.51-21.7 289.06-21.8 289.61-21.9 290.21-22L290.21-22Q291.61-22.15 292.84-22.15 294.06-22.15 294.94-21.15 295.81-20.15 295.81-17.98 295.81-15.8 295.14-11.78 294.46-7.75 294.46-5.78 294.46-3.8 295.41-3.8L295.41-3.8Q296.96-3.8 298.81-5.75L298.81-5.75Q298.86-6.55 299.46-10.85 300.06-15.15 300.06-17.1 300.06-19.05 299.76-20.45L299.76-20.45Q303.61-21.9 306.66-21.9L306.66-21.9Q307.31-21.45 307.31-18.98 307.31-16.5 306.46-12.13 305.61-7.75 305.61-5.78 305.61-3.8 306.41-3.8L306.41-3.8Q308.31-3.8 310.56-6.63 312.81-9.45 312.96-11.35L312.96-11.35 309.56-15.15Q309.76-17.3 310.61-19.05 311.46-20.8 312.21-21.5L312.21-21.5 312.91-22.15Q315.06-22.15 316.16-21 317.26-19.85 317.26-18.3L317.26-18.3Q317.26-14.35 315.31-9.95 313.36-5.55 310.06-2.48 306.76 0.6 303.36 0.6L303.36 0.6Q301.66 0.6 300.49-0.38 299.31-1.35 298.91-2.9L298.91-2.9Q295.41 0.6 292.11 0.6L292.11 0.6Q289.91 0.6 288.86-0.78 287.81-2.15 287.81-4.1ZM332.81-20.7L332.81-20.7Q332.91-20.8 333.36-22L333.36-22Q335.71-22 339.66-20.6L339.66-20.6Q338.41-16.45 337.66-11.93 336.91-7.4 336.91-5.48 336.91-3.55 337.31-3.55L337.31-3.55Q337.61-3.55 339.51-4.5L339.51-4.5 340.11-4.8 341.01-3.05Q340.56-2.65 339.83-2.05 339.11-1.45 337.11-0.43 335.11 0.6 333.51 0.6L333.51 0.6Q330.41 0.6 329.91-2.2L329.91-2.2Q326.71 0.6 324.13 0.6 321.56 0.6 319.78-1.4 318.01-3.4 318.01-7.7L318.01-7.7Q318.01-14.4 320.76-18.28 323.51-22.15 327.41-22.15L327.41-22.15Q330.21-22.15 332.81-20.7ZM327.11-3.65L327.11-3.65Q328.31-3.65 329.81-4.6L329.81-4.6Q330.16-11.65 332.16-18.55L332.16-18.55Q330.66-19.2 329.61-19.2L329.61-19.2Q327.81-19.2 326.53-15.68 325.26-12.15 325.26-7.9 325.26-3.65 327.11-3.65ZM342.91 0.15L342.91 0.15 342.56 0.15Q342.46-0.25 342.46-1.68 342.46-3.1 343.81-9.35 345.16-15.6 345.16-16.5L345.16-16.5Q345.16-18.05 343.76-19.9L343.76-19.9 343.31-20.5 343.36-21.15Q346.06-21.9 352.01-21.9L352.01-21.9Q352.61-20.6 352.61-18.25L352.61-18.25Q353.16-19.15 354.91-20.65 356.66-22.15 358.51-22.15L358.51-22.15Q361.21-22.15 361.21-17.45L361.21-17.45Q360.96-17.15 360.53-16.68 360.11-16.2 358.83-15.35 357.56-14.5 356.36-14.3L356.36-14.3Q356.31-14.3 355.51-15.65 354.71-17 354.31-17L354.31-17Q353.06-16.55 352.11-15.5L352.11-15.5Q349.81-5.15 349.81-2.1L349.81-2.1Q349.81-1 349.86-0.55L349.86-0.55Q348.11 0.15 342.91 0.15ZM359.9-8.65L359.9-8.65Q359.9-14.9 363.68-18.53 367.45-22.15 372.25-22.15L372.25-22.15Q375.2-22.15 377.1-20.7 379-19.25 379-16.82 379-14.4 377.78-12.75 376.55-11.1 374.8-10.2L374.8-10.2Q371.25-8.45 368.3-8L368.3-8 367.1-7.85Q367.45-3.15 370.95-3.15L370.95-3.15Q372.15-3.15 373.5-3.75 374.85-4.35 375.6-4.95L375.6-4.95 376.35-5.55 377.55-3.95Q377.15-3.4 375.95-2.5 374.75-1.6 373.7-1L373.7-1Q370.8 0.6 367.35 0.6 363.9 0.6 361.9-1.85 359.9-4.3 359.9-8.65ZM367.05-10.3Q369.6-10.75 371.1-12.45 372.6-14.15 372.6-16.85 372.6-19.55 371-19.55L371-19.55Q369.1-19.55 368.08-16.32 367.05-13.1 367.05-10.3L367.05-10.3ZM403.9 0.6L403.9 0.6Q401 0.6 397.9-0.35L397.9-0.35Q395.3 0.3 393.37 0.3 391.45 0.3 390.75 0.2L390.75 0.2Q391.1-2.75 393.77-14.78 396.45-26.8 396.45-28.43 396.45-30.05 395.77-31.25 395.1-32.45 394.45-33L394.45-33 393.75-33.55 393.9-34.3Q395.2-34.65 399.22-35.08 403.25-35.5 406.25-35.5L406.25-35.5Q413.2-35.5 416.77-32.43 420.35-29.35 420.35-22.45L420.35-22.45Q420.35-16.8 418.47-11.63 416.6-6.45 412.75-2.93 408.9 0.6 403.9 0.6ZM407.45-32.35L407.45-32.35Q406.15-32.35 404.5-32.05L404.5-32.05Q404-26.75 401.67-16.57 399.35-6.4 398.95-3.6L398.95-3.6Q400.15-3 402.25-3 404.35-3 406.22-4.67 408.1-6.35 409.25-8.85 410.4-11.35 411.25-14.45L411.25-14.45Q412.7-20 412.7-24.55 412.7-29.1 411.5-30.73 410.3-32.35 407.45-32.35ZM421.9-8.65L421.9-8.65Q421.9-14.9 425.67-18.53 429.45-22.15 434.25-22.15L434.25-22.15Q437.2-22.15 439.1-20.7 441-19.25 441-16.82 441-14.4 439.77-12.75 438.55-11.1 436.8-10.2L436.8-10.2Q433.25-8.45 430.3-8L430.3-8 429.1-7.85Q429.45-3.15 432.95-3.15L432.95-3.15Q434.15-3.15 435.5-3.75 436.85-4.35 437.6-4.95L437.6-4.95 438.35-5.55 439.55-3.95Q439.15-3.4 437.95-2.5 436.75-1.6 435.7-1L435.7-1Q432.8 0.6 429.35 0.6 425.9 0.6 423.9-1.85 421.9-4.3 421.9-8.65ZM429.05-10.3Q431.6-10.75 433.1-12.45 434.6-14.15 434.6-16.85 434.6-19.55 433-19.55L433-19.55Q431.1-19.55 430.07-16.32 429.05-13.1 429.05-10.3L429.05-10.3ZM446.92-22.15Q449.09-22.15 450.17-21.25 451.24-20.35 451.24-17.55L451.24-17.55Q451.24-16.05 450.34-11.43 449.44-6.8 449.44-5.8L449.44-5.8Q449.44-3.8 450.24-3.8L450.24-3.8Q452.14-3.8 454.42-6.63 456.69-9.45 456.79-11.35L456.79-11.35 453.39-15.15Q453.59-17.3 454.44-19.05 455.29-20.8 456.04-21.5L456.04-21.5 456.74-22.15Q458.89-22.15 459.99-21 461.09-19.85 461.09-18.3L461.09-18.3Q461.09-14.35 459.14-9.95 457.19-5.55 453.94-2.48 450.69 0.6 447.34 0.6L447.34 0.6Q445.24 0.6 444.12-0.7 442.99-2 442.99-4.13 442.99-6.25 443.32-9.85 443.64-13.45 443.64-17L443.64-17Q443.64-17.8 443.07-18.9 442.49-20 441.89-20.65L441.89-20.65 442.04-21.25Q444.74-22.15 446.92-22.15ZM461.54-8.65L461.54-8.65Q461.54-14.9 465.32-18.53 469.09-22.15 473.89-22.15L473.89-22.15Q476.84-22.15 478.74-20.7 480.64-19.25 480.64-16.82 480.64-14.4 479.42-12.75 478.19-11.1 476.44-10.2L476.44-10.2Q472.89-8.45 469.94-8L469.94-8 468.74-7.85Q469.09-3.15 472.59-3.15L472.59-3.15Q473.79-3.15 475.14-3.75 476.49-4.35 477.24-4.95L477.24-4.95 477.99-5.55 479.19-3.95Q478.79-3.4 477.59-2.5 476.39-1.6 475.34-1L475.34-1Q472.44 0.6 468.99 0.6 465.54 0.6 463.54-1.85 461.54-4.3 461.54-8.65ZM468.69-10.3Q471.24-10.75 472.74-12.45 474.24-14.15 474.24-16.85 474.24-19.55 472.64-19.55L472.64-19.55Q470.74-19.55 469.72-16.32 468.69-13.1 468.69-10.3L468.69-10.3ZM485.56 0.6Q483.84 0.6 482.71-0.55 481.59-1.7 481.59-3.78 481.59-5.85 484.06-17.03 486.54-28.2 486.54-33.15L486.54-33.15 486.24-35.35Q490.14-36.7 493.54-36.7L493.54-36.7Q494.04-36 494.04-34.25L494.04-34.25Q494.04-30.25 491.51-18.78 488.99-7.3 488.99-5.43 488.99-3.55 489.44-3.55L489.44-3.55 492.94-4.8 493.84-3.05Q492.14-1.7 489.71-0.55 487.29 0.6 485.56 0.6ZM501.99 0.6L501.99 0.6Q498.54 0.6 496.59-1.83 494.64-4.25 494.64-8.6L494.64-8.6Q494.64-14.15 497.61-18.15 500.59-22.15 505.84-22.15L505.84-22.15 507.64-22.05Q508.49-22.5 509.54-22.5L509.54-22.5Q513.49-22.5 513.49-15.05L513.49-15.05Q515.54-15.15 517.64-15.6L517.64-15.6 518.44-15.8 518.74-13.85Q517.09-13.15 514.29-12.6L514.29-12.6 513.29-12.4Q512.34-7.15 509.44-3.28 506.54 0.6 501.99 0.6ZM504.69-3.7L504.69-3.7Q506.79-3.7 508.46-6.4 510.14-9.1 510.79-12.1L510.79-12.1Q505.44-12.1 505.44-16.1L505.44-16.1Q505.44-17.7 506.09-19.1L506.09-19.1 506.34-19.6Q506.14-19.7 505.84-19.7 505.54-19.7 505.39-19.6L505.39-19.6Q504.14-18.8 503.04-15.85 501.94-12.9 501.94-9.1L501.94-9.1Q501.94-3.7 504.69-3.7ZM513.98 11.2L513.98 11.2Q513.73 10.6 513.73 8.55 513.73 6.5 515.68-2.48 517.63-11.45 517.63-16.3L517.63-16.3Q517.63-17.25 517.18-18.32 516.73-19.4 516.23-20L516.23-20 515.78-20.55 515.83-21.2Q518.18-21.95 524.13-21.95L524.13-21.95Q524.68-20.9 524.83-19L524.83-19Q528.68-22.15 531.26-22.15 533.83-22.15 535.41-20 536.98-17.85 536.98-13.7L536.98-13.7Q536.98-6.45 534.33-2.93 531.68 0.6 527.63 0.6L527.63 0.6Q525.53 0.6 524.13 0L524.13 0 523.63-0.2 523.98-2.15Q524.43-2.05 525.03-2.05L525.03-2.05Q526.33-2.05 527.31-3.25 528.28-4.45 528.78-6.3L528.78-6.3Q529.78-10 529.78-13.15L529.78-13.15Q529.78-17.65 527.93-17.65L527.93-17.65Q526.48-17.65 524.83-16.5L524.83-16.5Q524.63-13 522.78-4.25 520.93 4.5 520.93 9.85L520.93 9.85Q518.23 10.95 513.98 11.2ZM540.63 0.15L540.63 0.15 539.68 0.15Q539.68-2.2 541.11-8.85 542.53-15.5 542.53-16.4L542.53-16.4Q542.53-18.05 541.13-19.9L541.13-19.9 540.68-20.5 540.73-21.15Q543.43-21.9 549.38-21.9L549.38-21.9Q550.08-20.95 550.08-18.8L550.08-18.8Q554.58-22.15 557.23-22.15L557.23-22.15Q560.58-22.15 561.18-18.7L561.18-18.7Q562.53-19.8 564.71-20.98 566.88-22.15 568.61-22.15 570.33-22.15 571.48-21.03 572.63-19.9 572.63-17.9 572.63-15.9 571.53-11.3 570.43-6.7 570.43-5.13 570.43-3.55 570.88-3.55L570.88-3.55Q571.18-3.55 572.93-4.5L572.93-4.5 573.48-4.8 574.38-3.05Q573.08-1.75 570.86-0.58 568.63 0.6 566.93 0.6L566.93 0.6Q563.18 0.6 563.18-3.65L563.18-3.65Q563.18-5.2 564.26-9.88 565.33-14.55 565.33-15.98 565.33-17.4 564.48-17.4L564.48-17.4Q563.03-17.4 561.18-16.3L561.18-16.3Q561.08-15.3 559.81-9.5 558.53-3.7 558.53-0.5L558.53-0.5Q557.08 0.15 551.73 0.15L551.73 0.15Q551.63-0.4 551.63-2.5 551.63-4.6 552.81-9.65 553.98-14.7 553.98-16.05 553.98-17.4 553.03-17.4L553.03-17.4Q551.53-17.4 549.73-16.2L549.73-16.2Q549.63-15.75 548.73-11.8L548.73-11.8Q546.93-3.9 546.93-0.55L546.93-0.55Q545.18 0.15 540.63 0.15ZM575.78-8.65L575.78-8.65Q575.78-14.9 579.55-18.53 583.33-22.15 588.13-22.15L588.13-22.15Q591.08-22.15 592.98-20.7 594.88-19.25 594.88-16.82 594.88-14.4 593.65-12.75 592.43-11.1 590.68-10.2L590.68-10.2Q587.13-8.45 584.18-8L584.18-8 582.98-7.85Q583.33-3.15 586.83-3.15L586.83-3.15Q588.03-3.15 589.38-3.75 590.73-4.35 591.48-4.95L591.48-4.95 592.23-5.55 593.43-3.95Q593.03-3.4 591.83-2.5 590.63-1.6 589.58-1L589.58-1Q586.68 0.6 583.23 0.6 579.78 0.6 577.78-1.85 575.78-4.3 575.78-8.65ZM582.93-10.3Q585.48-10.75 586.98-12.45 588.48-14.15 588.48-16.85 588.48-19.55 586.88-19.55L586.88-19.55Q584.98-19.55 583.95-16.32 582.93-13.1 582.93-10.3L582.93-10.3ZM597.28 0.15L597.28 0.15 596.33 0.15Q596.33-2.2 597.75-8.85 599.18-15.5 599.18-16.4L599.18-16.4Q599.18-18.05 597.78-19.9L597.78-19.9 597.33-20.5 597.38-21.15Q600.08-21.9 606.03-21.9L606.03-21.9Q606.68-21.05 606.73-18.8L606.73-18.8Q611.08-22.15 614.08-22.15L614.08-22.15Q615.88-22.15 616.95-20.9 618.03-19.65 618.03-17.78 618.03-15.9 616.88-11.3 615.73-6.7 615.73-5.13 615.73-3.55 616.13-3.55L616.13-3.55Q616.43-3.55 618.23-4.5L618.23-4.5 618.83-4.8 619.73-3.05Q619.28-2.65 618.53-2.05 617.78-1.45 615.75-0.43 613.73 0.6 612.13 0.6L612.13 0.6Q608.48 0.6 608.48-3.55L608.48-3.55Q608.48-5.3 609.6-10 610.73-14.7 610.73-16.05 610.73-17.4 609.88-17.4L609.88-17.4Q608.43-17.4 606.33-16.15L606.33-16.15Q606.18-15.3 605.33-11.65L605.33-11.65Q603.58-3.8 603.58-0.55L603.58-0.55Q601.83 0.15 597.28 0.15ZM632.12-21.55L636.97-21.55Q636.87-20.3 636.12-18.65L636.12-18.65Q634.22-18.85 632.52-18.85L632.52-18.85 631.62-18.85Q629.32-7.7 629.32-4.95L629.32-4.95Q629.32-3.5 629.95-3.5 630.57-3.5 633.27-4.75L633.27-4.75 634.17-3.1Q629.72 0.6 625.92 0.6L625.92 0.6Q624.17 0.6 623.05-0.5 621.92-1.6 621.92-3.43 621.92-5.25 622.35-7.55 622.77-9.85 623.52-13.18 624.27-16.5 624.62-18.55L624.62-18.55Q622.77-18.4 621.87-18.25L621.87-18.25Q621.77-18.85 621.77-19.88 621.77-20.9 621.92-21.55L621.92-21.55 625.07-21.55Q625.47-24.25 625.47-26.65L625.47-26.65 625.42-28.2 625.42-28.35Q629.32-29.7 632.77-29.7L632.77-29.7Q632.97-28.7 632.97-27.2 632.97-25.7 632.12-21.55L632.12-21.55Z" opacity="1" transform="matrix(1,0,0,1,0,0)" fill="#000000" class="undefined-text-1" data-fill-palette-color="secondary" id="text-1"></path></svg></g></svg></g></svg></g></svg></g><g></g></svg></g><defs></defs></svg><rect width="249.9688357855448" height="247.2" fill="none" stroke="none" visibility="hidden"></rect></g></svg></g></svg>